# xmcd
#
# Track frame offsets:
#	150
#	59040
#	119877
#	184450
#	213175
#	274625
#	318107
#	331517
#
# Disc length: 4469 seconds
#
# Revision: 2
# Processed by: cddbd v1.5.1PL0 Copyright (c) Steve Scherf et al.
# Submitted via: EasyCDDAExtractor 7.1.2.1
#
DISCID=78117308
DTITLE=Martina McBride - World Premiere Radio Special
DYEAR=2001
DGENRE=Country
TTITLE0=When God-Fearin' Women Get The Blues
TTITLE1=Independence Day
TTITLE2=A Broken Wing
TTITLE3=Valentine
TTITLE4=I Love You
TTITLE5=Blessed
TTITLE6=Show Closing
TTITLE7=Show Promos
EXTD=
EXTT0=
EXTT1=
EXTT2=
EXTT3=
EXTT4=
EXTT5=
EXTT6=
EXTT7=
PLAYORDER=
